<svg xmlns="http://www.w3.org/2000/svg" viewBox="0 0 720 480" width="100%" role="img" aria-labelledby="t d"><title id="t">Backend systems</title><desc id="d">Servers connected to an API and database.</desc><defs><style>.flow{stroke-dasharray:10 12;animation:f 2s linear infinite}@keyframes f{to{stroke-dashoffset:-44}}@media(prefers-reduced-motion:reduce){*{animation:none!important}}@media(prefers-color-scheme:light){.box{fill:#fff}}</style></defs><g fill="none" stroke="#00b4d8" stroke-width="5"><path class="flow" d="M190 240h120M410 240h120"/><path class="flow" d="M360 175V105"/></g><g class="box" fill="#03045e" stroke="#0077b6" stroke-width="6"><rect x="70" y="150" width="120" height="180" rx="16"/><rect x="530" y="150" width="120" height="180" rx="16"/><rect x="285" y="175" width="150" height="130" rx="22"/><ellipse cx="360" cy="92" rx="78" ry="28"/><path d="M282 92v70c0 16 35 28 78 28s78-12 78-28V92"/></g><g fill="#00b4d8"><circle cx="101" cy="188" r="7"/><circle cx="101" cy="235" r="7"/><circle cx="101" cy="282" r="7"/><path d="M120 184h44v8h-44zm0 47h44v8h-44zm0 47h44v8h-44z"/><circle cx="561" cy="188" r="7"/><circle cx="561" cy="235" r="7"/><circle cx="561" cy="282" r="7"/></g><text x="360" y="254" text-anchor="middle" fill="#00b4d8" font-family="system-ui,sans-serif" font-size="42" font-weight="700">API</text></svg>
