<svg xmlns="http://www.w3.org/2000/svg" viewBox="0 0 48 48" role="img" aria-labelledby="t"><title id="t">Discord</title><defs><linearGradient id="g" x2="1" y2="1"><stop stop-color="#03045e"/><stop offset="1" stop-color="#0077b6"/></linearGradient><style>.i{transition:transform .25s ease;transform-origin:center}.i:hover{transform:scale(1.06)}@media(prefers-reduced-motion:reduce){.i{transition:none}}</style></defs><g class="i"><rect x="1" y="1" width="46" height="46" rx="13" fill="url(#g)" stroke="#00b4d8"/><path fill="#fff" d="M33 15.8a22 22 0 0 0-5.4-1.7l-.7 1.4a20 20 0 0 0-5.8 0l-.7-1.4a22 22 0 0 0-5.4 1.7c-3.4 5-4.3 9.9-3.8 14.7a22 22 0 0 0 6.6 3.3l1.6-2.2-2.5-1.2.6-.5a15.5 15.5 0 0 0 13 0l.7.5-2.6 1.2 1.6 2.2a22 22 0 0 0 6.6-3.3c.6-5.6-1-10.4-3.8-14.7ZM19.6 27.7c-1.3 0-2.3-1.2-2.3-2.7s1-2.7 2.3-2.7 2.4 1.2 2.3 2.7c0 1.5-1 2.7-2.3 2.7Zm8.8 0c-1.3 0-2.3-1.2-2.3-2.7s1-2.7 2.3-2.7 2.4 1.2 2.3 2.7c0 1.5-1 2.7-2.3 2.7Z"/></g></svg>
